<svg id="visual" viewBox="0 0 900 675" width="900" height="675" xmlns="http://www.w3.org/2000/svg" xmlns:xlink="http://www.w3.org/1999/xlink" version="1.1"><rect x="0" y="0" width="900" height="675" fill="#001220"></rect><defs><linearGradient id="grad1_0" x1="25%" y1="0%" x2="100%" y2="100%"><stop offset="23.333333333333336%" stop-color="#001220" stop-opacity="1"></stop><stop offset="76.66666666666666%" stop-color="#001220" stop-opacity="1"></stop></linearGradient></defs><defs><linearGradient id="grad2_0" x1="0%" y1="0%" x2="75%" y2="100%"><stop offset="23.333333333333336%" stop-color="#001220" stop-opacity="1"></stop><stop offset="76.66666666666666%" stop-color="#001220" stop-opacity="1"></stop></linearGradient></defs><g transform="translate(900, 0)"><path d="M0 281.3C-44.4 284.6 -88.8 287.9 -107.6 259.8C-126.5 231.7 -119.8 172.2 -145.7 145.7C-171.5 119.1 -229.8 125.5 -257.8 106.8C-285.8 88 -283.5 44 -281.2 0L0 0Z" fill="#FF6F61"></path></g><g transform="translate(0, 675)"><path d="M0 -281.2C36.9 -277.6 73.8 -273.9 107.6 -259.8C141.5 -245.8 172.3 -221.3 192.3 -192.3C212.4 -163.4 221.6 -130 234.7 -97.2C247.7 -64.4 264.5 -32.2 281.3 0L0 0Z" fill="#FF6F61"></path></g></svg>